<svg width="89" height="89" viewBox="0 0 89 89" fill="none" xmlns="http://www.w3.org/2000/svg">
<path d="M7.52506 54.6951C6.14471 54.6951 4.90776 54.465 3.81423 54.0047C2.72071 53.5444 1.84682 52.8632 1.1925 51.9611C0.53818 51.059 0.19308 49.9727 0.157227 48.7024H5.05117C5.12288 49.4204 5.3649 49.9681 5.77721 50.3455C6.18953 50.7229 6.72733 50.9117 7.39061 50.9117C8.07182 50.9117 8.60963 50.7506 9.00401 50.4284C9.3984 50.1062 9.59561 49.6598 9.59561 49.0891C9.59561 48.6104 9.43877 48.2144 9.12505 47.9014C8.81134 47.5885 8.42587 47.3307 7.96874 47.1282C7.51161 46.9257 6.86178 46.6956 6.01923 46.4378C4.80022 46.0512 3.80529 45.6646 3.03444 45.278C2.2636 44.8914 1.60031 44.3206 1.04459 43.5658C0.48886 42.8109 0.211045 41.826 0.211045 40.6109C0.211045 38.8066 0.847417 37.3936 2.12021 36.3718C3.393 35.35 5.05121 34.8391 7.09485 34.8391C9.17434 34.8391 10.8504 35.35 12.1232 36.3718C13.396 37.3936 14.0773 38.8159 14.1669 40.6385H9.19227C9.15642 40.0126 8.9323 39.52 8.51999 39.161C8.10767 38.802 7.57889 38.6225 6.93353 38.6225C6.3778 38.6225 5.92962 38.7744 5.58902 39.0781C5.24841 39.3819 5.07812 39.8192 5.07812 40.3899C5.07812 41.0159 5.36495 41.5037 5.9386 41.8535C6.51225 42.2033 7.40854 42.5808 8.62755 42.9858C9.84656 43.4093 10.837 43.8143 11.5989 44.201C12.3607 44.5876 13.0196 45.1491 13.5753 45.8855C14.131 46.622 14.4089 47.5702 14.4089 48.73C14.4089 49.8347 14.1355 50.838 13.5887 51.7402C13.042 52.6423 12.2487 53.3602 11.209 53.8941C10.1693 54.4281 8.94126 54.6951 7.52506 54.6951Z" fill="#7900FF"/>
<path d="M24.8496 38.9264C26.5705 38.9264 27.9509 39.5109 28.9907 40.6799C30.0304 41.849 30.5503 43.4555 30.5503 45.4991V54.5019H25.979V46.1342C25.979 45.1032 25.719 44.3024 25.1992 43.7316C24.6793 43.1609 23.9801 42.8755 23.1017 42.8755C22.2233 42.8755 21.5242 43.1609 21.0043 43.7316C20.4844 44.3024 20.2245 45.1032 20.2245 46.1342V54.5019H15.6263V27.0261H20.2245V41.1633C20.6906 40.4821 21.3271 39.9389 22.1338 39.5339C22.9405 39.1289 23.8457 38.9264 24.8496 38.9264Z" fill="#7900FF"/>
<path d="M46.8259 46.5486C46.8259 46.9905 46.799 47.4507 46.7452 47.9294H36.3388C36.4105 48.8867 36.7108 49.6185 37.2396 50.1248C37.7684 50.6311 38.4183 50.8843 39.1891 50.8843C40.3364 50.8843 41.1341 50.3872 41.5823 49.393H46.4763C46.2253 50.4056 45.7726 51.3169 45.1183 52.1269C44.464 52.937 43.6439 53.5722 42.6579 54.0325C41.672 54.4927 40.5694 54.723 39.3504 54.723C37.8804 54.723 36.5718 54.4007 35.4245 53.7563C34.2772 53.1119 33.3809 52.1915 32.7355 50.9948C32.0902 49.7981 31.7675 48.3988 31.7675 46.7971C31.7675 45.1954 32.0857 43.7962 32.7221 42.5995C33.3585 41.4028 34.2504 40.4822 35.3977 39.8379C36.545 39.1935 37.8625 38.8713 39.3504 38.8713C40.8025 38.8713 42.0932 39.1842 43.2226 39.8102C44.3519 40.4362 45.2348 41.3291 45.8712 42.489C46.5076 43.6488 46.8259 45.0021 46.8259 46.5486ZM42.1201 45.3058C42.1201 44.4957 41.8512 43.8514 41.3134 43.3727C40.7756 42.8941 40.1034 42.6547 39.2967 42.6547C38.5258 42.6547 37.876 42.8848 37.3472 43.3451C36.8183 43.8053 36.4911 44.4589 36.3656 45.3058H42.1201Z" fill="#7900FF"/>
<path d="M55.6801 50.4976V54.5019H53.3407C51.6735 54.5019 50.3737 54.083 49.4415 53.2453C48.5093 52.4076 48.0433 51.0407 48.0433 49.1444V27.0261H52.6415V39.092H55.6532V43.0136H52.6415V49.1996C52.6415 49.6598 52.749 49.9912 52.9642 50.1938C53.1793 50.3963 53.5378 50.4976 54.0397 50.4976H55.6801Z" fill="#7900FF"/>
<path d="M66.0407 54.502L61.4693 48.0398V54.502H56.8711V31.7256H61.4693V45.361L66.0137 39.0922H71.6874L65.449 46.8248L71.7413 54.502H66.0407Z" fill="#7900FF"/>
<path d="M66.0541 27.0264H61.4769V31.7272H66.0541V27.0264Z" fill="#7900FF"/>
<path d="M88.8165 39.092L79.4049 61.8202H74.4572L77.8991 53.9772L71.7951 39.092H76.9311L80.3998 48.7302L83.8417 39.092H88.8165Z" fill="#7900FF"/>
</svg>
